<svg xmlns="http://www.w3.org/2000/svg" enable-background="new 0 0 52 52" viewBox="0 0 52 52"><path d="M34.6368 10.8762c.6689 0 1.2134-.54 1.2134-1.2031 0-.6689-.5444-1.2129-1.2134-1.2129-.6743 0-1.2026.5332-1.2026 1.2129C33.4342 10.3361 33.9738 10.8762 34.6368 10.8762zM18.566 9.673c0-.6689-.5444-1.2129-1.2134-1.2129-.6748 0-1.2031.5332-1.2031 1.2129 0 .6631.5396 1.2031 1.2031 1.2031C18.0216 10.8762 18.566 10.3361 18.566 9.673zM16.1691 25.9221c0-.6689-.5444-1.2129-1.2134-1.2129-.6743 0-1.2026.5332-1.2026 1.2129 0 .6631.5396 1.2031 1.2026 1.2031C15.6246 27.1252 16.1691 26.5852 16.1691 25.9221zM35.8312 26.0891c0 .6631.5396 1.2031 1.2026 1.2031.6689 0 1.2134-.54 1.2134-1.2031 0-.6689-.5444-1.2129-1.2134-1.2129C36.3595 24.8762 35.8312 25.4094 35.8312 26.0891zM39.4874 41.1252c-.3594 0-.6963.1582-.9243.4326-.2358.2842-.3262.6523-.2544 1.0352.0781.418.4146.7871.8179.8984.7949.2158 1.5747-.373 1.5742-1.1533C40.7008 41.6691 40.1564 41.1252 39.4874 41.1252zM12.5587 41.1252c-.3594 0-.6963.1582-.9243.4326-.2358.2842-.3262.6523-.2539 1.0352.0781.418.4146.7871.8179.8984.7954.2158 1.5737-.373 1.5737-1.1533C13.7721 41.6691 13.2277 41.1252 12.5587 41.1252z"/><path d="M49,35.45h-9.528l-0.3818-2.5599H45.05c0.55,0,1-0.4501,1-1v-11.78c0-0.55-0.45-1-1-1h-7.9978l-0.382-2.5601H40.71
		c0.55,0,1-0.4399,1-1V3.78c0-0.5499-0.45-1-1-1H11.29c-0.55,0-1,0.4501-1,1v11.77c0,0.5601,0.45,1,1,1h4.0396l-0.3817,2.5601H6.95
		c-0.55,0-1,0.45-1,1v11.78c0,0.5499,0.45,1,1,1h5.9597L12.5281,35.45H3c-0.55,0-1,0.4401-1,1v11.77c0,0.5499,0.45,1,1,1h46
		c0.55,0,1-0.4501,1-1V36.45C50,35.8901,49.55,35.45,49,35.45z M40.2472,26.0891c0,1.7666-1.4414,3.2031-3.2134,3.2031
		c-1.7661,0-3.2026-1.4365-3.2026-3.2031c0-1.7715,1.4365-3.2129,3.2026-3.2129C38.8058,22.8762,40.2472,24.3176,40.2472,26.0891z
		 M34.6368,6.4602c1.772,0,3.2134,1.4414,3.2134,3.2129c0,1.7666-1.4414,3.2031-3.2134,3.2031
		c-1.7661,0-3.2026-1.4365-3.2026-3.2031C31.4342,7.9016,32.8707,6.4602,34.6368,6.4602z M14.1495,9.673
		c0-1.7715,1.437-3.2129,3.2031-3.2129c1.772,0,3.2134,1.4414,3.2134,3.2129c0,1.7666-1.4414,3.2031-3.2134,3.2031
		C15.5865,12.8762,14.1495,11.4396,14.1495,9.673z M17.3521,16.55h17.2958l0.3819,2.5601H16.9704L17.3521,16.55z M11.7531,25.9221
		c0-1.7715,1.4365-3.2129,3.2026-3.2129c1.772,0,3.2134,1.4414,3.2134,3.2129c0,1.7666-1.4414,3.2031-3.2134,3.2031
		C13.1896,29.1252,11.7531,27.6887,11.7531,25.9221z M14.9321,32.8901h22.1356l0.3818,2.5599H14.5506L14.9321,32.8901z
		 M12.5582,45.5412c-0.2974,0-0.5967-0.041-0.8901-0.1211c-1.1484-0.3164-2.0327-1.2813-2.2534-2.458
		c-0.1812-0.9639,0.0669-1.9414,0.6802-2.6807c0.6094-0.7354,1.5073-1.1563,2.4639-1.1563c1.772,0,3.2134,1.4414,3.2134,3.2129
		C15.7721,44.1037,14.3302,45.5412,12.5582,45.5412z M39.4865,45.5412c-0.2969,0-0.5967-0.041-0.8896-0.1211
		c-1.1489-0.3174-2.0332-1.2813-2.2539-2.458c-0.1807-0.9648,0.0674-1.9414,0.6812-2.6816
		c0.6094-0.7344,1.5073-1.1553,2.4634-1.1553c1.772,0,3.2134,1.4414,3.2134,3.2129C42.7008,44.1037,41.2589,45.5412,39.4865,45.5412
		z"/></svg>